{
    "asset" : {
        "generator" : "Khronos glTF Blender I/O v1.6.16",
        "version" : "2.0"
    },
    "scene" : 0,
    "scenes" : [
        {
            "name" : "Scene",
            "nodes" : [
                0
            ]
        }
    ],
    "nodes" : [
        {
            "mesh" : 0,
            "name" : "pedacinhodek",
            "translation" : [
                0.004191276617348194,
                0.009228602051734924,
                -0.0014269724488258362
            ]
        }
    ],
    "materials" : [
        {
            "alphaMode" : "BLEND",
            "doubleSided" : true,
            "name" : "roxo",
            "pbrMetallicRoughness" : {
                "baseColorFactor" : [
                    0.4232677221298218,
                    0,
                    0.9559735059738159,
                    0.5789473652839661
                ],
                "metallicFactor" : 0,
                "roughnessFactor" : 0
            }
        }
    ],
    "meshes" : [
        {
            "name" : "pedacinhodek",
            "primitives" : [
                {
                    "attributes" : {
                        "POSITION" : 0,
                        "NORMAL" : 1
                    },
                    "indices" : 2,
                    "material" : 0
                }
            ]
        }
    ],
    "accessors" : [
        {
            "bufferView" : 0,
            "componentType" : 5126,
            "count" : 46729,
            "max" : [
                0.8345529437065125,
                3.1778061389923096,
                0.5184958577156067
            ],
            "min" : [
                -0.9097116589546204,
                -6.961822509765625e-05,
                -0.5187799334526062
            ],
            "type" : "VEC3"
        },
        {
            "bufferView" : 1,
            "componentType" : 5126,
            "count" : 46729,
            "type" : "VEC3"
        },
        {
            "bufferView" : 2,
            "componentType" : 5123,
            "count" : 46776,
            "type" : "SCALAR"
        }
    ],
    "bufferViews" : [
        {
            "buffer" : 0,
            "byteLength" : 560748,
            "byteOffset" : 0
        },
        {
            "buffer" : 0,
            "byteLength" : 560748,
            "byteOffset" : 560748
        },
        {
            "buffer" : 0,
            "byteLength" : 93552,
            "byteOffset" : 1121496
        }
    ],
    "buffers" : [
        {
            "byteLength" : 1215048,
            "uri" : "data:application/octet-stream;base64,"
        }
    ]
}
